<svg width="1536" height="768" viewBox="0 0 1536 768" fill="none" xmlns="http://www.w3.org/2000/svg">
<path d="M0 0H258.336H1536V270.05V339.548V768H0V536.651V470.353V220.667V0Z" fill="#0024E7"/>
<path d="M0 0H258.336C260.368 4.78287 261.67 9.95106 259.556 14.936C253.331 29.6141 232.834 29.859 219.558 27.9959C201.396 25.4473 184.022 21.1079 166.33 16.5494C159.993 14.9222 153.911 12.347 147.462 11.4899C144.788 11.2298 144.132 12.0615 142.355 13.4633C141.525 15.9047 140.992 16.8829 141.445 19.4247C142.645 21.2881 142.812 21.7686 145.009 22.6349C186.042 38.7884 235.757 52.3099 266.542 85.618C288.014 108.85 266.508 133.028 237.324 124.395C202.478 114.087 171.924 93.8324 141.774 73.9049C137.049 70.7819 132.326 66.8846 127.055 64.9883C121.303 62.9185 119.961 69.4172 121.167 73.3303C125.862 79.3185 139.687 86.4729 146.501 92.1793C166.742 109.132 261.072 170.339 234.671 201.882C195.982 248.106 119.027 148.426 97.9128 119.466C93.752 114.067 90.5863 105.956 82.7583 108.695C81.5729 110.322 80.9615 111.59 81.4163 113.694C82.4886 118.654 90.2347 127.149 93.2765 131.456C109.551 154.504 158.016 215.667 142.36 244.499C139.8 249.213 135.698 252.921 130.5 254.44C123.577 256.464 116.392 254.312 110.32 250.851C81.9558 234.685 60.8901 179.031 48.0884 149.199C45.1909 142.447 43.3677 134.611 39.6258 128.311C38.7696 126.869 37.8708 125.913 36.2865 125.254C34.8861 124.672 33.4054 124.522 31.9242 124.871C30.4719 125.213 29.0887 126.142 28.3653 127.47C23.7438 135.952 54.3241 185.699 36.7959 215.659C33.8055 220.77 29.3068 225.365 23.7032 227.523C18.9362 229.36 13.788 229.11 9.14768 226.996C5.751 225.449 2.81161 223.081 0 220.667V0Z" fill="#F3C131"/>
<path d="M1536 339.548C1529.75 367.215 1523.97 390.626 1509.47 415.71C1495.82 438.017 1475.33 471.727 1449.44 480.324C1430.7 486.737 1404.29 474.169 1398.48 455.036C1390.14 427.545 1416.03 400.002 1426.36 374.717C1434.89 354.138 1439.51 332.151 1439.99 309.88C1440.86 269.249 1426.93 229.222 1405.81 194.916C1401.85 188.487 1397.32 181.2 1395.4 173.884C1392.96 164.531 1394.36 154.592 1399.3 146.28C1410.93 126.612 1438.77 117.064 1458.99 129.788C1467.8 135.281 1474.53 143.423 1481.24 151.159C1512.68 187.379 1525.58 224.148 1536 270.05V339.548Z" fill="#FD6E5F"/>
<path d="M0 470.353C18.6232 455.954 36.473 447.404 60.8239 450.532C79.6704 452.816 96.7947 462.617 108.309 477.711C131.408 507.688 126.238 543.409 111.477 575.58C91.827 552.1 61.4359 537.682 31.1223 534.988C20.7206 534.141 10.2522 534.7 0 536.651L0 470.353Z" fill="#FD6E5F"/>
<path d="M1320.26 596.197C1321.58 573.876 1326.58 546.93 1328.6 523.699C1340.46 545.353 1350.56 569.043 1362.86 591.007C1380.35 582.866 1407.1 566.853 1424.98 557.142C1426.03 558.261 1427.1 559.367 1428.18 560.461C1419.94 576.704 1408.18 598.917 1401.24 615.432L1451.38 624.995C1459.47 626.536 1471.21 628.403 1478.75 630.508C1457.14 639.394 1433 649.153 1411.73 658.763C1426.14 678.41 1445.36 701.96 1458.52 721.46C1435.47 712.809 1407.88 697.029 1384.85 687.486C1382.06 710.269 1379.11 733.032 1376.01 755.774C1366.45 741.355 1350.49 711.265 1342.11 695.502C1324.2 707.992 1298.02 726.536 1279.59 737.521C1288.28 716.447 1298.03 694.346 1306.28 673.236C1279.84 669.109 1253.12 665.752 1226.79 661.021C1246.83 652.013 1274.72 640.31 1293.87 630.225C1280.26 611.998 1265.13 591.446 1250.68 573.953C1249.03 572.037 1247.84 570.305 1246.39 568.259C1249.83 569.591 1253.85 571.145 1257.19 572.655C1278.14 580.084 1299.11 588.611 1320.26 596.197Z" fill="#F3C131"/>
<path d="M1246.39 568.259C1249.83 569.591 1253.85 571.145 1257.19 572.655C1253.62 572.816 1253.82 572.131 1250.68 573.953C1249.03 572.037 1247.84 570.305 1246.39 568.259Z" fill="#FCBB1F"/>
<path d="M565.7 209.808C567.135 211.495 567.547 211.918 569.304 213.26C569.575 212.839 568.196 167.601 569.383 161.984L570.296 161.919L613.641 162.014L613.63 287.142L560.247 287.198C553.122 271.876 546.642 256.042 539.376 240.905C537.54 239.05 537.407 238.42 534.806 237.978L534.754 288.032L489.013 288.002C488.925 275.056 488.143 166.022 489.632 162.012L544.692 162.039C547.576 168.874 562.323 204.802 565.7 209.808Z" fill="#EFEFEF"/>
<path d="M489.013 288.002C488.925 275.056 488.143 166.022 489.632 162.012C490.67 171.201 489.799 187.472 490.059 197.249C490.839 226.632 489.179 257.93 490.173 287.145L533.429 287.18C533.593 272.423 534.61 243.653 532.021 230.588L533.591 228.032L535.346 231.6C534.621 234.566 533.827 235.268 534.806 237.978L534.754 288.032L489.013 288.002Z" fill="#0F1B78"/>
<path d="M565.7 209.808C567.135 211.495 567.547 211.918 569.304 213.26C569.575 212.839 568.196 167.601 569.383 161.984L570.296 161.919C570.698 176.394 569.453 205.936 572.261 218.256L569.675 219.008C568.316 216.17 566.954 212.742 565.7 209.808Z" fill="#0922B1"/>
<path d="M535.346 231.6C536.843 234.633 538.189 237.738 539.376 240.905C537.54 239.05 537.407 238.42 534.806 237.978C533.827 235.268 534.621 234.566 535.346 231.6Z" fill="#0922B1"/>
<path d="M572.261 218.256C573.736 225.052 572.452 224.738 569.675 219.008L572.261 218.256Z" fill="#0A0C3D"/>
<path d="M532.733 226.382L533.591 228.032L532.021 230.588C531.676 229.432 531.152 228.166 530.717 227.028L532.733 226.382Z" fill="#0A0C3D"/>
<path d="M530.717 227.028C530.756 226.275 530.581 224.443 531.247 223.918C532.206 224.01 532.475 225.57 532.733 226.382L530.717 227.028Z" fill="#0C0B22"/>
<path d="M833.419 479.14L878.158 479.083C897.286 479.074 930.932 477.278 940.477 500.56C943.969 509.077 943.559 519.893 938.98 527.872C934.384 535.88 928.591 537.889 920.102 540.413C918.928 541.867 918.599 541.76 917.788 543.501C925.954 544.879 933.747 546.724 939.904 552.669C949.969 562.385 948.794 583.694 938.937 593.05C922.115 609.016 893.931 606.154 872.358 606.107L833.351 606.137L833.419 479.14Z" fill="#EFEFEF"/>
<path d="M920.102 540.413C918.928 541.867 918.599 541.76 917.788 543.501C911.974 543.342 911.097 543.293 905.601 542.181L920.102 540.413Z" fill="#0C0B22"/>
<path d="M877.392 553.862C882.689 554.235 890.806 553.806 895.045 556.634C896.912 557.897 898.159 559.889 898.482 562.12C899.002 565.658 897.873 567.687 895.809 570.34C888.439 574.356 885.84 573.676 877.398 574.008L877.392 553.862Z" fill="#0024E7"/>
<path d="M877.614 512.188C883.744 512.257 897.946 510.972 898.711 519.739C899.089 524.072 898.56 525.766 895.845 528.976C890.072 532.078 884.548 531.218 877.687 531.463L877.614 512.188Z" fill="#0024E7"/>
<path d="M710.286 479.125C733.908 479.087 780.32 475.91 800.271 485.303C810.076 489.919 817.722 497.821 821.335 508.128C825.094 518.851 825.223 530.102 820.081 540.375C815.725 549.079 808.933 553.742 799.935 556.723C804.35 565.028 822.826 598.43 822.685 605.051C820.316 607.267 780.227 606.275 773.856 606.266C770.554 597.001 766.273 583.95 762.408 575.234C761.058 573.345 760.452 572.608 759.583 570.377L758.211 570.223C756.291 574.745 758.76 599.843 756.457 605.189C753.769 606.696 716.623 606.091 710.27 606.088L710.286 479.125Z" fill="#EFEFEF"/>
<path d="M755.523 562.614C756.933 564.861 757.067 565.129 759.369 566.398C760.636 569.573 761.6 571.871 762.408 575.234C761.058 573.345 760.452 572.608 759.583 570.377L758.211 570.223C756.291 574.745 758.76 599.843 756.457 605.189C755.795 595.021 757.278 571.089 755.523 562.614Z" fill="#0922B1"/>
<path d="M755.523 562.614C758.098 558.171 758.473 563.511 759.369 566.398C757.067 565.129 756.933 564.861 755.523 562.614Z" fill="#0F1B78"/>
<path d="M755.996 513.742C764.149 513.782 778.436 513.42 778.259 525.374C778.206 528.888 776.898 530.682 774.624 533.11C767.405 536.907 764.133 536.859 755.975 536.738L755.996 513.742Z" fill="#0024E7"/>
<path d="M1173.23 320.888C1189.15 320.624 1205.18 320.949 1221.12 320.803C1228.32 320.737 1236.48 320.604 1243.57 321.591C1250.2 322.472 1256.65 324.371 1262.7 327.221C1293.06 341.819 1296.62 387.09 1262.91 398.338C1268.62 410.014 1284.16 437.027 1286.84 447.728C1270.39 447.916 1253.56 447.741 1237.07 447.744C1233.35 438.699 1230.04 428.138 1226.33 418.681C1224.3 416.574 1224.86 416.453 1222.56 416.27C1218.2 420.905 1222.3 444.969 1219.73 447.823C1204.42 448.016 1188.52 447.793 1173.17 447.774L1173.23 320.888Z" fill="#EFEFEF"/>
<path d="M1222.46 406.993C1223.5 410.99 1224.94 414.794 1226.33 418.681C1224.3 416.574 1224.86 416.453 1222.56 416.27C1218.2 420.905 1222.3 444.969 1219.73 447.823C1218.47 443.15 1219.36 414.789 1219.31 408.016L1222.46 406.993Z" fill="#0922B1"/>
<path d="M1219.31 408.016C1219.56 401.075 1219.72 400.428 1222.46 406.993L1219.31 408.016Z" fill="#0A0C3D"/>
<path d="M1219.21 355.416C1227.73 355.351 1240.14 354.97 1241.24 366.375C1241.59 370.066 1239.48 372.715 1237.19 375.241C1230.11 378.927 1226.94 378.645 1219.08 378.798L1219.21 355.416Z" fill="#0024E7"/>
<path d="M435.708 320.906L478.98 320.732C487.614 320.705 499.169 320.332 507.43 321.504C514.126 322.404 520.625 324.414 526.661 327.45C556.059 342.568 558.845 387.715 525.328 398.221C530.063 406.154 547.545 439.96 549.437 447.689L498.982 447.844C494.31 435.613 490.559 422.718 485.669 410.128L483.212 407.699C481.448 416.187 483.149 437.267 481.738 447.395C479.293 448.844 441.764 448.237 435.761 448.223L435.708 320.906Z" fill="#EFEFEF"/>
<path d="M481.645 399.174C483.073 402.589 484.406 406.605 485.669 410.128L483.212 407.699C481.448 416.187 483.149 437.267 481.738 447.395C480.931 435.465 481.622 411.891 481.645 399.174Z" fill="#0A0C3D"/>
<path d="M481.502 355.405C487.364 355.377 494.962 354.847 499.663 358.83C505.265 363.577 504.357 369.979 500.016 375.018C492.573 379.189 489.879 378.662 481.455 378.896L481.502 355.405Z" fill="#0024E7"/>
<path d="M312.155 321.042C334.894 320.922 379.999 317.811 399.115 325.916C409.657 330.386 418.359 337.963 422.627 348.844C426.733 359.265 426.536 370.889 422.081 381.165C417.866 390.787 410.99 394.896 401.851 398.572C409.648 413.49 420.276 432.729 426.385 447.927L375.775 447.782C371.603 435.835 367.301 423.934 362.868 412.082L361.035 410.782C356.974 414.839 360.815 445.38 358.488 447.8L358.192 447.76L312.149 447.796L312.155 321.042Z" fill="#EFEFEF"/>
<path d="M358.104 407.14L361.011 406.702L362.868 412.082L361.035 410.782C356.974 414.839 360.815 445.38 358.488 447.8L358.192 447.76C358.258 435.23 358.773 419.414 358.104 407.14Z" fill="#0F1B78"/>
<path d="M358.104 407.14C358.854 400.565 358.784 401.477 361.011 406.702L358.104 407.14Z" fill="#0A0C3D"/>
<path d="M357.714 355.319C363.604 355.321 371.413 354.828 376.002 358.829C381.332 363.477 380.525 370.312 376.321 375.153C373.48 376.454 359.251 380.685 358.388 378.284C357.124 374.765 357.721 359.604 357.714 355.319Z" fill="#0024E7"/>
<path d="M1038.76 161.977L1084.62 162.041C1084.92 176.817 1084.99 191.596 1084.81 206.374L1110.03 206.28L1110.01 162.023L1156.34 162.141L1156.42 286.284C1154.15 287.965 1115.99 287.179 1110.1 287.16C1110.02 272.699 1110.01 258.238 1110.07 243.776L1085.03 243.785L1085.06 287.258L1038.76 287.223V161.977Z" fill="#EFEFEF"/>
<path d="M798.027 320.864L845.267 320.845L845.152 370.717C845.136 379.519 845.381 388.677 845.551 397.419C845.912 416.013 869.648 415.356 871.112 398.913C871.953 389.457 871.533 379.115 871.454 369.473C871.327 353.286 871.292 337.099 871.35 320.911L918.939 320.862L918.871 360.375C918.945 374.658 919.36 389.138 918.377 403.373C914.836 454.683 843.593 464.737 812.503 433.374C806.786 427.645 802.666 420.522 800.55 412.71C797.202 400.566 798.014 381.417 798.009 368.339L798.027 320.864Z" fill="#EFEFEF"/>
<path d="M1068.97 320.85L1129.54 320.766C1140.05 362.43 1155.63 405.712 1165.47 447.749C1154.45 447.801 1129.05 448.602 1119.15 447.481C1117.49 445.921 1117.56 444.178 1117.22 441.817L1114.39 428.235L1084 428.274C1082.61 434.81 1081.14 441.328 1079.59 447.827L1032.58 447.871C1043.21 407.011 1057.2 361.782 1068.97 320.85Z" fill="#EFEFEF"/>
<path d="M1094.35 395.965C1093.31 395.89 1092.26 395.701 1091.22 395.544C1090.09 393.249 1097.07 359.059 1098.25 354.257L1099.13 354.314L1099.76 357.088C1102.19 369.995 1104.54 382.917 1106.82 395.853L1094.35 395.965Z" fill="#0024E7"/>
<path d="M1094.35 395.965C1093.31 395.89 1092.26 395.701 1091.22 395.544C1090.09 393.249 1097.07 359.059 1098.25 354.257L1099.13 354.314L1099.76 357.088C1097.68 361.201 1091.39 390.205 1092.38 394.471C1093.18 395.28 1093.29 395.511 1094.35 395.965Z" fill="#0A0C3D"/>
<path d="M753.492 444.114C738.733 451.832 720.896 452.958 704.997 448.185C652.106 432.307 651.669 348.455 698.577 325.09C717.01 315.883 740.98 316.393 759.981 322.653C767.458 325.096 774.579 328.517 781.16 332.826C776.952 342.31 769.363 359.844 764.494 368.436C736.447 347.491 709.297 358.225 714.537 395.364C716.116 406.557 725.579 418.277 737.497 406.583C741.44 402.713 740.207 386.439 740.106 380.125L785.75 380.207C785.721 402.343 786.092 425.732 785.624 447.758L763.08 447.832C761.766 442.811 760.546 437.765 759.42 432.698L756.127 430.994C755.336 435.026 754.461 440.221 753.492 444.114Z" fill="#EFEFEF"/>
<path d="M756.127 430.994C757.857 424.613 758.406 428.53 759.42 432.698L756.127 430.994Z" fill="#0C0B22"/>
<path d="M711.971 282.882C707.32 285.821 703.699 287.455 698.326 288.618C612.525 307.196 596.629 178.424 673.667 160.271C695.967 155.016 720.039 161.926 739.022 174.182C733.363 185.098 728.148 196.969 723.016 208.202C703.077 193.167 676.621 190.828 672.393 222.065C670.871 233.305 676.67 261.027 694.355 247.33C699.922 243.019 698.329 227.214 698.204 219.5L743.617 219.241L743.747 287.236L721.26 287.202C719.825 281.299 718.452 275.688 717.341 269.712C716.262 271.099 715.157 272.464 714.025 273.808L711.971 282.882Z" fill="#EFEFEF"/>
<path d="M714.025 273.808C714.652 271.349 715.16 264.014 717.341 269.712C716.262 271.099 715.157 272.464 714.025 273.808Z" fill="#0C0B22"/>
<path d="M1002.75 477.323C1023.17 476.228 1043.57 482.064 1061.36 491.852C1057.41 501.137 1050.05 514.164 1045.13 523.361C1044.1 522.863 1043.06 522.379 1042.02 521.91C1035.12 518.816 1004.88 507.637 1000.86 517.086C1002.1 521.874 1011.16 523.679 1015.44 524.416C1051.87 530.685 1080.05 556.627 1053.87 592.784C1044.78 605.346 1023.03 608.145 1008.83 608.952C988.054 609.036 966.076 604.853 949.048 592.408C955.156 582.451 960.754 571.602 966.591 561.373C976.354 566.099 1003.41 576.973 1013.72 571.91C1015.07 569.913 1014.82 570.864 1014.52 568.282C1010.67 563.376 974.852 557.114 965.461 547.256C958.477 541.302 953.847 534.385 953.273 524.644C951.346 491.94 975.207 479.641 1002.75 477.323Z" fill="#EFEFEF"/>
<path d="M961.514 159.272C982.955 156.297 1008.02 162.648 1026.36 174.104C1021.14 184.396 1015.86 194.657 1010.51 204.885C1004.4 202.12 969.022 187.038 966.325 198.281C967.187 200.44 968.026 201.608 970.263 202.422C991.806 210.164 1026.6 213.019 1028.61 242.885C1030.8 275.311 1008.93 286.166 981.937 289.389C957.561 290.29 935.119 288.078 914.535 273.849C920.848 263.408 925.933 252.477 932.273 242.011C938.704 245.04 976.967 261.842 980.093 250.645C979.526 248.565 977.081 246.834 975.278 246.186C961.056 241.104 945.396 239.052 932.789 230.112C916.069 218.254 914.221 192.454 926.485 176.773C935.192 165.639 947.992 161.113 961.514 159.272Z" fill="#EFEFEF"/>
<path d="M601.613 479.214L699.116 479.221L699.166 516.366C682.221 516.213 665.275 516.178 648.329 516.259L648.389 526.327L689.506 526.354L689.582 558.725C683.074 558.709 654.207 558.176 648.791 559.173C647.634 561.373 647.959 564.61 647.992 567.187L648.34 568.924C650.904 570.393 691.809 569.383 699.241 569.327L699.187 605.982L602 606.007L601.613 479.214Z" fill="#EFEFEF"/>
<path d="M559.502 320.888L656.34 320.871L656.383 357.104L605.719 357.058L605.583 367.448L647.238 367.491L647.235 399.534C639.587 399.492 612.47 398.907 606.813 399.92C605.62 401.862 605.914 404.999 605.903 407.437C605.915 408.424 606.11 409.299 606.272 410.277C609.385 411.693 650.277 410.925 656.532 410.891L656.655 447.772L559.624 447.812L559.502 320.888Z" fill="#EFEFEF"/>
<path d="M379.82 162.027L477.475 162.018L477.52 198.14L426.625 198.058L426.65 208.984L467.969 208.848L467.954 239.794C459.04 239.913 435.276 239.054 427.482 240.187C426.357 241.717 426.597 243.986 426.538 246.029C426.534 248.167 426.382 248.832 427.326 250.779C430.697 251.672 471.454 251.244 477.435 251.228L477.34 286.985L379.962 287.187C379.9 245.635 380.325 203.527 379.82 162.027Z" fill="#EFEFEF"/>
<path d="M546.854 479.122C562.743 479.082 578.633 479.155 594.521 479.342C593.185 490.313 584.489 521.817 581.086 533.952C574.695 556.741 568.922 584.174 562.077 606.247L499.981 606.11C492.842 577.858 485.537 549.649 478.066 521.483C474.916 509.383 469.456 490.8 467.577 479.147L517.047 479.134C519.998 502.915 525.549 536.077 530.288 559.699C532.802 559.216 531.792 559.308 533.491 557.524C539.01 532.477 541.527 502.684 546.854 479.122Z" fill="#EFEFEF"/>
<path d="M530.288 559.699C532.802 559.216 531.792 559.308 533.491 557.524C533.062 562.521 531.575 571.112 530.288 559.699Z" fill="#0C0B22"/>
<path d="M931.777 320.753L977.777 320.71L977.712 410.76L1027.23 410.807C1027.32 422.361 1027.78 436.418 1027.21 447.775L931.738 447.829C931.74 405.509 932.205 363.057 931.777 320.753Z" fill="#EFEFEF"/>
<path d="M757.07 162.02L802.614 162.11L802.698 250.4L851.523 250.395L851.535 287.022L757.072 287.192C755.801 248.001 757.041 201.911 757.07 162.02Z" fill="#EFEFEF"/>
<path d="M251.853 320.918L297.655 320.895L297.514 447.672C283.147 448.096 266.404 447.767 251.879 447.807L251.853 320.918Z" fill="#EFEFEF"/>
<path d="M861.132 162.039L906.681 162.019L906.643 287.056L861.527 287.147C860.66 245.912 861.136 203.342 861.132 162.039Z" fill="#EFEFEF"/>
<path d="M1424.98 557.142C1427.31 555.618 1429.69 554.164 1432.1 552.78C1430.75 555.32 1429.34 557.836 1428.18 560.461C1427.1 559.367 1426.03 558.261 1424.98 557.142Z" fill="#FCBB1F"/>
</svg>
